HIERARCHY
ROOT HipCenter
{
    OFFSET 0.0 0.0 -0.0
    CHANNELS 6 Xposition Yposition Zposition Zrotation Xrotation Yrotation
    JOINT Spine
    {
        OFFSET 0.0 12.03535270690918 0.0
        CHANNELS 3 Zrotation Xrotation Yrotation
        JOINT ShoulderCenter
        {
            OFFSET 0.0 31.613771438598633 0.0
            CHANNELS 3 Zrotation Xrotation Yrotation
            JOINT LeftShoulder
            {
                OFFSET 16.985023498535156 0.0 0.0
                CHANNELS 3 Zrotation Xrotation Yrotation
                JOINT LeftElbow
                {
                    OFFSET 30.426177978515625 0.0 0.0
                    CHANNELS 3 Zrotation Xrotation Yrotation
                    JOINT LeftWrist
                    {
                        OFFSET 26.315349578857422 0.0 0.0
                        CHANNELS 3 Zrotation Xrotation Yrotation
                        JOINT LeftHand
                        {
                            OFFSET 2.5929903984069824 0.0 0.0
                            CHANNELS 3 Zrotation Xrotation Yrotation
                            End Site
                            {
                                OFFSET 1.037196159362793 0.0 0.0
                            }
                        }
                    }
                }
            }
            JOINT RightShoulder
            {
                OFFSET -16.985023498535156 0.0 0.0
                CHANNELS 3 Zrotation Xrotation Yrotation
                JOINT RightElbow
                {
                    OFFSET -30.426177978515625 0.0 0.0
                    CHANNELS 3 Zrotation Xrotation Yrotation
                    JOINT RightWrist
                    {
                        OFFSET -26.315349578857422 0.0 0.0
                        CHANNELS 3 Zrotation Xrotation Yrotation
                        JOINT RightHand
                        {
                            OFFSET -2.5929903984069824 0.0 0.0
                            CHANNELS 3 Zrotation Xrotation Yrotation
                            End Site
                            {
                                OFFSET -1.037196159362793 0.0 0.0
                            }
                        }
                    }
                }
            }
            End Site
            {
                OFFSET 0.0 12.645508766174316 0.0
            }
        }
    }
    JOINT LeftHip
    {
        OFFSET 16.763757705688477 0.0 0.0
        CHANNELS 3 Zrotation Xrotation Yrotation
        JOINT LeftKnee
        {
            OFFSET 0.0 -34.998138427734375 0.0
            CHANNELS 3 Zrotation Xrotation Yrotation
            JOINT LeftAnkle
            {
                OFFSET 0.0 -41.17591857910156 0.0
                CHANNELS 3 Zrotation Xrotation Yrotation
                JOINT LeftFoot
                {
                    OFFSET 0.0 -12.276433944702148 0.0
                    CHANNELS 3 Zrotation Xrotation Yrotation
                    End Site
                    {
                        OFFSET 0.0 0.0 4.9105730056762695
                    }
                }
            }
        }
    }
    JOINT RightHip
    {
        OFFSET -16.763757705688477 0.0 0.0
        CHANNELS 3 Zrotation Xrotation Yrotation
        JOINT RightKnee
        {
            OFFSET 0.0 -34.998138427734375 0.0
            CHANNELS 3 Zrotation Xrotation Yrotation
            JOINT RightAnkle
            {
                OFFSET 0.0 -41.17591857910156 0.0
                CHANNELS 3 Zrotation Xrotation Yrotation
                JOINT RightFoot
                {
                    OFFSET 0.0 -12.276433944702148 0.0
                    CHANNELS 3 Zrotation Xrotation Yrotation
                    End Site
                    {
                        OFFSET 0.0 0.0 4.9105730056762695
                    }
                }
            }
        }
    }
}
MOTION
Frames: 6
Frame Time: 0.03333333333333333
59.70000076293945 -11.699999809265137 7.90000057220459 6.286907908585862 9.092989743270708 -37.646093821029275 -0.2179106667042295 -6.1312756241283175 0.4722504223724031 -3.7134625154825127e-08 -9.810474664496177e-08 5.135758601778752 105.14429489508818 -5.206827796247025 171.57926817428128 -2.4916121009222497e-06 -1.291050366662774e-07 29.99004549074977 -179.9999969425896 -32.56115538512277 -139.7260056089315 0.0 0.0 3.1805546814635168e-15 -155.01000133340975 12.24702699979734 -171.56537232390622 -4.785422776734528e-06 1.9408111525682095e-06 -126.75689709457104 179.99999657734315 -41.810668246754155 169.90437502676585 0.0 0.0 -7.752602036067324e-15 5.098387925781557 -32.382102714484525 10.072014848939695 10.237492580075656 33.043577924257875 -39.76060277020248 62.225681251599426 -60.01997254585086 109.15021139814466 0.0 4.969616689786745e-17 0.0 -4.858578576951053 2.3226020803517913 22.541511873714427 -0.22529831992155153 19.577858125857464 12.833475685635023 -91.13106214060932 -58.51524800554695 -127.41407501808315 -4.7708320221952736e-15 3.975693351829395e-16 3.975693351829395e-16
59.20000076293945 -11.800000190734863 6.199999809265137 6.234476051920663 8.551269408240659 -37.376268498046294 0.4507058261279277 -6.065192836060398 0.6207125465818848 -1.498818835749019e-08 -2.0702058307223434e-07 2.6351084269754654 103.73047577136761 -1.9776660742841492 171.43289847038633 -4.265591660217632e-06 3.069962857383925e-06 30.561881628755383 -179.99999722267987 -35.145132151361835 -141.43911690422732 0.0 0.0 0.0 -152.3659294181679 19.03403284674917 -174.51408882652038 -1.4939647107871705e-06 2.679273527633853e-06 -128.9714481100122 179.99999095385866 -60.04926777238626 165.60322018734348 -6.3611093629270335e-15 -3.1805546814635168e-15 1.5902773407317582e-15 5.4337705580105515 -32.28741797464977 11.043928663542735 11.156467127297987 31.817528250384893 -40.52156837902953 59.420022272595155 -59.851720789702924 108.05318161473194 0.0 0.0 0.0 -4.232888938349968 2.6482245296303923 21.85775587411611 -0.3661322445380001 18.65561208186752 11.652207548504926 -92.27137822192196 -60.108984473864666 -127.00321547308474 -2.3854160110976376e-15 8.276074308844047e-33 -3.975693351829396e-16
58.79999923706055 -11.800000190734863 4.400000095367432 6.234476043305083 8.551267103750885 -37.68066836634639 1.2498338330582943 -6.1654324212287674 0.7121121035497386 -1.3406774865845532e-07 2.6461094133468814e-07 1.2391209893187316 102.74045446799721 -1.0618729454329159 172.12776578016098 -2.3367218279575686e-07 3.4729017054680966e-06 30.825525308238348 -179.9999974744858 -29.901332276923068 -144.05043922084894 0.0 0.0 0.0 -148.32627360794763 25.360955511494485 -177.1743364840247 6.842101236363894e-07 2.1025412631346283e-06 -131.3828751720426 -179.99999773625817 -63.133342487720135 160.67671556519554 0.0 0.0 6.361109362927033e-15 6.345940393396712 -31.91012273482217 10.910393057013692 10.677286244405215 29.883352472011786 -39.37464998917926 54.557378188089224 -59.310817595280945 104.32633631569746 -1.7655625192200634e-31 -6.361109362927033e-15 -3.1805546814635164e-15 -3.2426756097679745 1.5355317984391332 21.25427201560399 -0.3737891273538661 19.0732432066943 11.666520655557232 -95.18899039820298 -60.50004782255887 -129.3464450748951 -1.5902773407317588e-15 3.975693351829398e-16 -4.373262687012336e-15
58.499996185302734 -11.699999809265137 2.8000001907348633 6.286853652085154 8.149429378488225 -38.36456693631801 1.7944907407868926 -5.973661442572469 0.7168580272520012 -5.887451064448475e-09 1.0349955276272537e-07 0.026936330676224182 101.53269229725431 -1.304682214064313 172.621583840485 -2.4596520809822886e-06 -3.000444658639289e-06 31.652323545632747 -179.99999962678993 -33.23735432216267 -141.83487260988997 0.0 6.3611093629270335e-15 0.0 -142.88623130301707 30.27274644084751 179.2496896390883 -1.2316287918685295e-06 -3.218736475001971e-07 -133.9034049550418 179.99999595695783 -68.49510513232664 153.21674723794717 0.0 1.590277340731758e-15 0.0 6.968772083676784 -30.51526715158703 9.81591199973465 9.169002784563267 27.291534620253987 -36.28738832274032 49.094964263531814 -58.23731050007087 99.40185454077697 3.1805546814635168e-15 0.0 0.0 -2.498021227815287 0.1377826191853469 20.396814082707714 -0.41169476059702376 20.500506091561263 12.673636173612161 -96.5644037716696 -59.90714947464061 -131.02145255495824 -3.975693351829395e-15 2.0690185772110117e-31 -5.9635400277440935e-15
58.20000076293945 -11.699999809265137 1.4000000953674316 5.758263965730402 7.619524382797627 -38.802868387801986 2.82695304655029 -5.1890091672213075 0.6815681753604188 -8.15175361440183e-08 -1.8295380580554842e-07 -1.388617757470958 100.54401946342284 -3.174075441246776 173.6109920837012 3.358198332442207e-06 4.253259934219075e-06 31.99911255562581 179.99999503583606 -30.55365095141934 -145.50452754664616 0.0 0.0 -3.1805546814635164e-15 -136.0141538748376 34.15091622137323 174.80027153370082 2.5284654821373273e-06 7.740274406046898e-07 -136.30934784344691 -179.9999983899454 -66.62587778253867 147.3768764096249 6.3611093629270335e-15 -1.5902773407317584e-15 7.951386703658792e-16 7.756555618084721 -28.614988029866502 8.32405588381771 8.073488480704418 24.844683818567265 -33.14436079802204 44.68332312494504 -57.8816071814215 95.21932077672345 3.1805546814635176e-15 -6.385957446375969e-15 -3.1805546814635176e-15 -1.4221050778289088 -0.457114703748057 19.37182766790695 -0.7659325957096763 21.684646655546782 13.231620935634412 -98.54109762131371 -60.45177300371421 -132.4043539150254 -3.1805546814635164e-15 5.9635400277440935e-15 -3.975693351829394e-16
58.0 -11.59999942779541 0.10000000149011612 5.758245859501146 7.619524701911925 -39.00997423460202 3.850007101538427 -5.52697506531346 0.8436171641878039 2.6287813755376293e-08 -3.959027441269865e-08 -3.2550615441135773 99.3628086523544 -5.488119636335673 174.41741003081265 3.51588501094001e-06 7.113080813446504e-07 32.58675110935355 179.99999962676773 -30.036044702927356 -144.45002723033153 -1.7655625192200634e-31 6.361109362927035e-15 3.1805546814635176e-15 -129.1178152651078 36.04977437387664 170.410330259743 4.3388188228953224e-07 -4.5627399941170485e-06 -138.2844931646744 -179.99998897415873 -71.542011600054 140.0168957597147 6.361109362927032e-15 0.0 0.0 8.179991687905474 -27.868313965250756 6.999418481114374 7.530333274684434 23.113145800794054 -31.544947286578374 42.25621612303582 -56.63102151578096 93.64835643841595 8.827812596100317e-32 6.3611093629270335e-15 -1.5902773407317584e-15 -0.8002613665438784 -0.979253754742535 19.67219480312924 -0.39995358460779173 21.42458374295614 12.626541091791271 -98.82367194518288 -60.25288190276918 -131.92684900776544 1.590277340731758e-15 -5.517382872562698e-33 -3.975693351829395e-16
